<svg id="Layer_35" enable-background="new 0 0 64 64" height="512" viewBox="0 0 64 64" width="512" xmlns="http://www.w3.org/2000/svg"><g><path d="m50 40h-36c-1.105 0-2-.895-2-2v-12c0-1.105.895-2 2-2h36c1.105 0 2 .895 2 2v12c0 1.105-.895 2-2 2z" fill="#d5883e"/><path d="m28 52h8v10h-8z" fill="#474747"/><g><path d="m33 52h-2v-5c0-.489.354-.906.835-.986l23.165-3.861v-9.153h-3v-2h4c.552 0 1 .448 1 1v11c0 .489-.354.906-.835.986l-23.165 3.861z" fill="#686868"/></g><g><path d="m11 1h2v20h-2z" fill="#d5883e"/></g><g><path d="m51 11h2v10h-2z" fill="#f3a748"/></g><g><path d="m51 1h2v2h-2z" fill="#f0ae42"/></g><g><path d="m51 5h2v4h-2z" fill="#f0ae42"/></g><g><path d="m17 2h2v13h-2z" fill="#f3a748"/></g><g><path d="m23 15h2v6h-2z" fill="#d5883e"/></g><path d="m12 43v8c0 1.105.895 2 2 2 1.105 0 2-.895 2-2v-2c0-1.105.895-2 2-2 1.105 0 2 .895 2 2v6c0 1.105.895 2 2 2 1.105 0 2-.895 2-2v-12" fill="#d5883e"/><g><path d="m9 31h3v2h-3z" fill="#686868"/></g><path d="m30 60c-.552 0-1-.448-1-1v-4c0-.552.448-1 1-1 .552 0 1 .448 1 1v4c0 .552-.448 1-1 1z" fill="#686868"/><path d="m16 24v11c0 1.105.895 2 2 2h26c1.105 0 2-.895 2-2v-11z" fill="#f3a748"/><path d="m43 31h-24c-1.105 0-2-.895-2-2v-2c0-1.105.895-2 2-2h24c1.105 0 2 .895 2 2v2c0 1.105-.895 2-2 2z" fill="#f9d266"/><g fill="#f3a748"><path d="m49 38c-.552 0-1-.448-1-1v-8c0-.552.448-1 1-1 .552 0 1 .448 1 1v8c0 .552-.448 1-1 1z"/><path d="m14 51c-.552 0-1-.448-1-1v-5c0-.552.448-1 1-1 .552 0 1 .448 1 1v5c0 .552-.448 1-1 1z"/><path d="m22 55c-.552 0-1-.448-1-1v-2c0-.552.448-1 1-1 .552 0 1 .448 1 1v2c0 .552-.448 1-1 1z"/></g></g></svg>