<svg id="Capa_1" enable-background="new 0 0 512 512" height="512" viewBox="0 0 512 512" width="512" xmlns="http://www.w3.org/2000/svg"><g><g><path d="m383.533 181.452h21.568c9.134 0 16.566 7.432 16.566 16.567v41.414c0 9.135-7.431 16.568-16.566 16.568h-149.098c-27.404 0-49.699 22.295-49.699 49.699v29.848h33.133v-29.848c0-9.135 7.431-16.566 16.566-16.566h149.098c27.404 0 49.699-22.297 49.699-49.701v-41.414c0-27.405-22.295-49.7-49.699-49.7h-21.568z" fill="#f4f2f4"/><path d="m189.736 358.682v129.252c0 9.15 7.417 16.567 16.567 16.567h33.132c9.149 0 16.567-7.417 16.567-16.567v-129.252z" fill="#dd636e"/><path d="m65.484 198.019c-4.575 0-8.283-3.709-8.283-8.283v-49.701c0-4.575 3.709-8.283 8.283-8.283h314.766c4.575 0 8.283 3.709 8.283 8.283v49.701c0 4.575-3.709 8.283-8.283 8.283z" fill="#e2dfe2"/><path d="m405.101 148.319h-21.568v.036c26.743.763 48.267 22.739 48.267 49.663v41.414c0 27.404-22.295 49.701-49.699 49.701h23c27.404 0 49.699-22.297 49.699-49.701v-41.414c0-27.405-22.295-49.699-49.699-49.699z" fill="#e2dfe2"/><path d="m233 358.682v129.251c0 9.15-7.417 16.567-16.567 16.567h23.002c9.149 0 16.567-7.417 16.567-16.567v-129.251z" fill="#da4a54"/><path d="m272.569 338.831v16.568c0 4.575-3.709 8.283-8.283 8.283h-82.834c-4.575 0-8.283-3.708-8.283-8.283v-16.568c0-4.575 3.709-8.283 8.283-8.283h82.834c4.574-.001 8.283 3.708 8.283 8.283z" fill="#dd636e"/><path d="m264.286 330.547h-23c4.575 0 8.283 3.708 8.283 8.283v16.568c0 4.575-3.709 8.283-8.283 8.283h23c4.575 0 8.283-3.709 8.283-8.283v-16.568c0-4.574-3.709-8.283-8.283-8.283z" fill="#da4a54"/><path d="m380.25 131.751h-23c4.575 0 8.283 3.709 8.283 8.283v49.701c0 4.575-3.709 8.283-8.283 8.283h23c4.575 0 8.283-3.709 8.283-8.283v-49.701c0-4.574-3.709-8.283-8.283-8.283z" fill="#d3ced5"/><path d="m338.834 111.901v-62.985c0-9.15-7.417-16.567-16.567-16.567s-16.567 7.417-16.567 16.567v8.284c0 9.149-7.417 16.567-16.567 16.567-9.149 0-16.567-7.417-16.567-16.567l-.002-33.133c0-9.15-7.417-16.567-16.567-16.567s-16.567 7.417-16.567 16.567l.002 33.133c0 9.149-7.417 16.567-16.567 16.567s-16.567-7.417-16.567-16.567l-.002-33.133c0-9.15-7.417-16.567-16.567-16.567-9.149 0-16.567 7.417-16.567 16.567l.002 33.132c0 9.149-7.417 16.567-16.567 16.567-9.149 0-16.567-7.417-16.567-16.567l-.002-8.283c0-9.15-7.417-16.567-16.567-16.567s-16.567 7.417-16.567 16.567v62.985z" fill="#a6ccfb"/><path d="m322.268 32.349c-4.471 0-8.52 1.779-11.5 4.657 3.119 3.013 5.067 7.23 5.067 11.909v62.985h23v-62.984c-.001-9.149-7.418-16.567-16.567-16.567z" fill="#8cbdf9"/><path d="m339.404 222.869h-233.066c-8.837 0-16-7.163-16-16v-83.967c0-8.837 7.163-16 16-16h233.066c8.837 0 16 7.163 16 16v83.967c0 8.837-7.163 16-16 16z" fill="#efd27c"/><g fill="#eabc73"><path d="m339.404 106.902h-23c8.837 0 16 7.163 16 16v83.967c0 8.836-7.163 16-16 16h23c8.837 0 16-7.164 16-16v-83.967c0-8.837-7.163-16-16-16z"/><path d="m206.303 106.903-33.133 115.964h-49.703l33.133-115.964z"/><path d="m272.577 222.867 33.133-115.964h-49.703l-33.134 115.964z"/></g></g><path d="m405.101 140.819h-9.067v-.784c0-8.703-7.081-15.784-15.784-15.784h-17.345v-1.349c0-10.547-6.984-19.492-16.57-22.456v-51.53c0-13.271-10.796-24.066-24.067-24.066-13.27 0-24.066 10.796-24.066 24.066v8.284c0 5-4.067 9.067-9.067 9.067-4.999 0-9.067-4.067-9.067-9.067l-.001-33.132c-.001-13.272-10.797-24.068-24.068-24.068-13.27 0-24.067 10.796-24.067 24.067l.001 33.132c0 5-4.067 9.067-9.066 9.067s-9.067-4.067-9.067-9.067l-.002-33.132c.001-13.271-10.795-24.067-24.066-24.067s-24.066 10.796-24.066 24.067l.001 33.132c0 4.999-4.067 9.066-9.067 9.066-4.999 0-9.066-4.067-9.066-9.068l-.002-8.282c0-13.271-10.796-24.066-24.067-24.066s-24.066 10.796-24.066 24.067v51.533c-9.581 2.967-16.561 11.91-16.561 22.453v1.349h-17.354c-8.703 0-15.784 7.08-15.784 15.783v49.701c0 8.703 7.081 15.783 15.784 15.783h17.354v1.351c0 12.958 10.542 23.5 23.5 23.5h233.066c12.958 0 23.5-10.542 23.5-23.5v-1.351h17.345c8.703 0 15.784-7.081 15.784-15.783v-.783h9.067c4.999 0 9.066 4.067 9.066 9.066v41.415c0 5-4.067 9.067-9.066 9.067h-34.696c-4.142 0-7.5 3.358-7.5 7.5s3.358 7.5 7.5 7.5h34.696c13.27 0 24.066-10.796 24.066-24.067v-41.415c0-13.27-10.796-24.066-24.066-24.066h-9.067v-18.133h9.067c23.268 0 42.199 18.931 42.199 42.2v41.415c0 23.27-18.931 42.201-42.199 42.201h-149.097c-13.27 0-24.065 10.796-24.065 24.065v17.348h-18.133v-17.348c0-23.268 18.93-42.199 42.199-42.199h84.401c4.142 0 7.5-3.358 7.5-7.5s-3.358-7.5-7.5-7.5h-84.401c-31.54 0-57.199 25.659-57.199 57.199v17.348h-17.352c-8.703 0-15.784 7.08-15.784 15.783v16.568c0 8.703 7.081 15.783 15.784 15.783h.784v52.051c0 4.142 3.358 7.5 7.5 7.5s7.5-3.358 7.5-7.5v-18.92h51.265v83.621c0 5-4.067 9.067-9.066 9.067h-33.132c-4.999 0-9.067-4.067-9.067-9.067v-34.701c0-4.142-3.358-7.5-7.5-7.5s-7.5 3.358-7.5 7.5v34.701c0 13.271 10.796 24.067 24.067 24.067h33.132c13.27 0 24.066-10.796 24.066-24.067v-116.752h.784c8.703 0 15.783-7.08 15.783-15.783v-16.568c0-8.703-7.08-15.783-15.783-15.783h-17.348v-17.348c0-4.999 4.067-9.065 9.065-9.065h149.098c31.539 0 57.199-25.66 57.199-57.201v-41.415c0-31.541-25.66-57.2-57.199-57.2zm-281.635-100.969c4.999 0 9.067 4.067 9.067 9.068l.002 8.282c0 13.27 10.796 24.066 24.066 24.066 13.271 0 24.067-10.796 24.067-24.067l-.001-33.132c0-5 4.067-9.067 9.066-9.067s9.067 4.067 9.067 9.067l.002 33.132c0 13.271 10.796 24.067 24.067 24.067 13.27 0 24.066-10.796 24.066-24.067l-.001-33.132c0-5 4.067-9.067 9.067-9.067 4.999 0 9.066 4.067 9.066 9.067l.001 33.132c0 13.271 10.796 24.067 24.067 24.067s24.067-10.796 24.067-24.067v-8.284c0-4.999 4.067-9.066 9.066-9.066 5 0 9.067 4.067 9.067 9.066v50.486h-216.936v-50.485c0-4.999 4.067-9.066 9.067-9.066zm109.35 175.519 28.848-100.967h34.103l-28.848 100.967zm-49.703 0 28.848-100.967h34.103l-28.848 100.967zm-49.703 0 28.848-100.967h34.103l-28.848 100.967zm-67.926-24.851c-.432 0-.784-.352-.784-.783v-49.701c0-.432.352-.783.784-.783h17.354v51.267zm32.354 16.351v-83.967c0-4.687 3.813-8.5 8.5-8.5h40.319l-28.848 100.967h-11.472c-4.686 0-8.499-3.813-8.499-8.5zm250.066 0c0 4.687-3.813 8.5-8.5 8.5h-56.885l28.848-100.967h28.037c4.687 0 8.5 3.813 8.5 8.5zm33.129-17.134c0 .432-.352.783-.784.783h-17.345v-51.267h17.345c.432 0 .784.352.784.784zm-132.532 199.577h-51.265v-18.131h51.265zm16.568-50.481v16.568c0 .432-.352.783-.783.783h-82.833c-.432 0-.784-.352-.784-.783v-16.568c0-.432.352-.783.784-.783h82.833c.431-.001.783.351.783.783z"/></g></svg>