<svg version="1.1" id="Capa_1" xmlns="http://www.w3.org/2000/svg" xmlns:xlink="http://www.w3.org/1999/xlink" x="0px"
	y="0px" viewBox="0 0 511.999 511.999" style="enable-background:new 0 0 511.999 511.999; transform: rotate(-45deg);" xml:space="preserve">
	<path style="fill:#EBE8EF;" d="M135.355,206.934c2.111-92.463,69.647-202.04,138.961-206.924c2.786-0.196,4.935,2.416,4.178,5.104
	c-25.793,91.57,98.184,119.558,98.184,214.308c0,67.061-54.695,113.201-121.909,112.636
	C187.206,331.489,133.813,274.483,135.355,206.934z" />
	<path style="fill:#D8D2DE;" d="M286.935,326.941c-67.564-0.569-120.956-57.576-119.414-125.123
	c1.822-79.825,52.409-172.393,110.803-199.353c-0.644-1.509-2.186-2.583-4.007-2.455c-69.313,4.884-136.85,114.46-138.961,206.924
	c-1.543,67.548,51.851,124.555,119.414,125.123c13.665,0.115,26.812-1.701,39.087-5.23
	C291.565,326.919,289.258,326.961,286.935,326.941z" />
	<path style="fill:#7ED9DE;" d="M320.117,341.087c-0.895-3.581-4.113-6.095-7.805-6.095H199.67c-3.692,0-6.91,2.513-7.805,6.095
	c-0.689,2.756-17.385,86.619-16.28,170.913h160.81C337.503,427.706,320.806,343.842,320.117,341.087z" />
	<path style="fill:#5ECFD6;" d="M224.049,341.087c0.895-3.581,4.113-6.095,7.805-6.095h-32.183c-3.692,0-6.91,2.513-7.805,6.095
	c-0.689,2.756-17.385,86.618-16.28,170.913h32.183C206.664,427.706,223.36,343.842,224.049,341.087z" />
	<path style="fill:#B1A5BE;" d="M328.404,318.901H183.58c-4.443,0-8.046,3.602-8.046,8.046v32.183c0,4.443,3.602,8.046,8.046,8.046
	h144.824c4.443,0,8.046-3.603,8.046-8.046v-32.183C336.45,322.503,332.847,318.901,328.404,318.901z" />
	<path class="paint-color" style="fill:#EB81A1;" d="M352.541,174.077c0-5.324,2.598-10.031,6.582-12.96c-33.205-53.461-100.252-86.335-80.629-156.002
	c0.756-2.685-1.387-5.294-4.169-5.104c-1.089,0.076-2.176,0.179-3.265,0.306c-0.557,0.065-1.113,0.156-1.671,0.234
	c-0.526,0.074-1.052,0.137-1.578,0.222C200.838,11.739,137.4,117.366,135.354,206.934c-0.215,9.441,0.644,18.675,2.463,27.579
	c2.537,0.933,5.359,1.276,8.326,0.755c7.773-1.366,13.297-8.364,13.297-16.256v-39.365c0-8.664,6.659-16.12,15.313-16.528
	c9.241-0.435,16.87,6.928,16.87,16.073v23.683c0,8.664,6.659,16.12,15.313,16.528c9.241,0.435,16.87-6.928,16.87-16.073v-63.912
	c0-8.664,6.659-16.12,15.313-16.528c9.241-0.435,16.87,6.928,16.87,16.073v120.232c0,8.664,6.659,16.12,15.313,16.528
	c9.241,0.436,16.87-6.928,16.87-16.073v-47.82c0-8.664,6.659-16.12,15.313-16.528c9.241-0.435,16.87,6.928,16.87,16.073v15.637
	c0,8.664,6.659,16.12,15.313,16.528c9.241,0.435,16.87-6.928,16.87-16.073v-5.117v-35.112v-13.162H352.541z" />
	<path class="paint-color" style="fill:#E76C91;" d="M278.323,2.465c-0.642-1.506-2.18-2.579-3.997-2.455c-1.089,0.076-2.176,0.179-3.265,0.306
	c-0.557,0.065-1.113,0.156-1.671,0.234c-0.526,0.074-1.052,0.137-1.578,0.222C200.838,11.738,137.4,117.365,135.354,206.933
	c-0.215,9.441,0.644,18.675,2.463,27.579c2.537,0.933,5.359,1.276,8.326,0.755c7.773-1.366,13.297-8.364,13.297-16.256v-39.365
	c0-7.662,5.211-14.369,12.401-16.103C185.443,94.516,229.106,25.189,278.323,2.465z" />

</svg>